<?xml version="1.0" encoding="UTF-8"?>
<svg xmlns="http://www.w3.org/2000/svg" xmlns:xlink="http://www.w3.org/1999/xlink" width="31.406mm" height="63.890mm" viewBox="-890.536743 9.108102 31.405640 63.890396">
    <path transform="matrix(-2.369629,0,0,2.369629,2691.354004,9.327435)" style="stroke:#000000;stroke-width:0.05mm;fill:none" d="M1502.548584,-0.091965L1502.5271,-0.083969C1502.401855,-0.039474,1502.299316,0.039917,1502.216553,0.132828L1502.210449,0.140823L1502.206543,0.14682C1501.980713,0.51474,1501.801025,0.909836,1501.669434,1.320679L1501.669434,1.322678L1501.667358,1.326675C1501.161865,3.381744,1500.817139,5.472321,1500.634033,7.580719L1500.585205,8.110016L1500.585205,8.112015C1500.509644,9.707199,1500.330322,11.295792,1500.050049,12.867981L1499.962158,13.366043L1499.786377,14.405121L1499.587158,15.467651C1499.200684,17.293686,1498.863037,19.130981,1498.577393,20.975571L1498.579468,20.971573C1498.418091,21.802536,1498.334473,22.646713,1498.329468,23.493118C1498.324463,23.8815,1498.407349,24.264496,1498.577515,24.614243L1498.583496,24.624237L1498.589478,24.632233C1498.878174,25.003616,1499.227173,25.324173,1499.620728,25.581467L1499.622803,25.583466L1499.624756,25.583466C1500.640503,26.159943,1501.758179,26.535843,1502.915771,26.690903L1503.575928,26.765121L1503.578003,26.765121C1504.203247,26.835815,1504.654663,26.92569,1505.773682,26.82782L1506.045166,26.788727L1506.053223,26.786728C1507.248291,26.722031,1508.422852,26.447845,1509.521973,25.974197L1509.526123,25.972198C1510.08252,25.754883,1510.585205,25.419266,1510.998779,24.987808C1511.283447,24.756012,1511.47229,24.425278,1511.518311,24.060059L1511.518311,24.05806C1511.601807,23.516754,1511.604248,22.967285,1511.526245,22.425217C1511.337769,20.944244,1511.102539,19.469376,1510.821167,18.003235L1510.57312,16.731735L1510.57312,16.729736C1510.139893,14.667633,1509.7854,12.59024,1509.51062,10.501083L1509.51062,10.497086L1509.390381,9.312531L1509.390381,9.306534C1509.264648,6.746429,1508.909668,4.202011,1508.331787,1.704819L1508.331787,1.70282C1508.251343,1.316757,1508.117432,0.944443,1507.939209,0.593414C1507.863281,0.393372,1507.750854,0.209442,1507.605225,0.052383L1507.601318,0.048386L1507.597168,0.044388C1507.529419,-0.013412,1507.453491,-0.051605,1507.380371,-0.082565L1507.358887,-0.09256L1507.239746,-0.080856L1507.226074,-0.07486C1507.094971,-0.016663,1506.997314,0.087265,1506.933105,0.20639L1506.931152,0.210388L1506.929199,0.214386C1506.744995,0.632568,1506.624512,1.0755,1506.569702,1.52887C1506.398071,3.093857,1506.366455,4.671143,1506.473999,6.241867L1506.471924,6.241867L1506.579346,8.277069C1505.959229,8.266266,1505.340332,8.260071,1504.719971,8.261475L1504.718018,8.261475C1504.258301,8.267471,1503.744019,8.26947,1503.323486,8.275482L1503.428955,6.242233C1503.52832,4.812195,1503.513184,3.376633,1503.38208,1.949173L1503.38208,1.947174C1503.34668,1.524734,1503.268921,1.106842,1503.153564,0.699097C1503.105713,0.496582,1503.028564,0.301346,1502.921143,0.12291L1502.919067,0.12291L1502.916992,0.120911C1502.858154,0.031708,1502.772827,-0.038818,1502.670898,-0.076355L1502.660889,-0.080353L1502.548584,-0.091965z"/>
    <path transform="matrix(-1,0,0,1,0,0)" style="stroke:none;fill:#0000ff;fill-rule:evenodd" d="M875.007324,45.363037C875.301514,45.141464,875.583496,44.395855,875.678467,43.590588C875.759277,42.901894,875.759277,42.901894,876.403809,42.81638C877.145752,42.718033,877.821045,42.430504,877.920654,42.170567C877.961182,42.064842,877.851318,41.900795,877.652344,41.770447C877.360596,41.579681,876.996826,41.550068,874.976563,41.553864C872.595947,41.558601,871.944824,41.663567,871.944824,42.043545C871.944824,42.33017,872.437744,42.609051,873.23584,42.773823C873.958984,42.923336,873.962402,42.925938,873.962402,43.380222C873.962402,44.012188,874.291748,45.059673,874.568848,45.310753C874.756836,45.480877,874.838379,45.490601,875.007324,45.362892L875.007324,45.363037z"/>
    <path transform="matrix(-1,0,0,1,0,0)" style="stroke:none;fill:#0000ff;fill-rule:evenodd" d="M869.959717,39.964191C870.376221,39.718575,870.598389,38.967178,870.609863,37.766525C870.621582,36.547035,870.425293,35.952461,869.922363,35.683342C869.710938,35.570313,869.60791,35.607262,869.312988,35.902313C868.614014,36.601128,868.487793,38.72789,869.091797,39.624344C869.395508,40.074867,869.621826,40.163567,869.959717,39.964264L869.959717,39.964191z"/>
    <path transform="matrix(-1,0,0,1,0,0)" style="stroke:none;fill:#0000ff;fill-rule:evenodd" d="M880.765869,39.321884C881.501709,38.112305,881.336426,36.18763,880.446533,35.604767C880.144531,35.406662,880.108154,35.409264,879.787354,35.648125C879.024658,36.21616,878.760742,38.045666,879.290039,39.095394C879.540771,39.592636,879.628418,39.662529,880.043945,39.696983C880.458984,39.731335,880.543701,39.687515,880.765869,39.321884z"/>
</svg>
